<svg width="16" height="17" viewBox="0 0 16 17" fill="none" xmlns="http://www.w3.org/2000/svg">
<path d="M4.64 0.327393H11.36C13.92 0.327393 16 2.46412 16 5.09394V8.54557V11.9972C16 13.2614 15.5111 14.4738 14.641 15.3677C13.7708 16.2616 12.5906 16.7638 11.36 16.7638H4.64C2.08 16.7638 0 14.627 0 11.9972V5.09394C0 3.82977 0.488856 2.61738 1.35902 1.72348C2.22919 0.829581 3.4094 0.327393 4.64 0.327393ZM4.48 1.97103C3.71618 1.97103 2.98364 2.28273 2.44353 2.83757C1.90343 3.3924 1.6 4.14492 1.6 4.92957V12.1616C1.6 13.797 2.888 15.1201 4.48 15.1201H11.52C12.2838 15.1201 13.0164 14.8084 13.5565 14.2536C14.0966 13.6987 14.4 12.9462 14.4 12.1616V4.92957C14.4 3.29416 13.112 1.97103 11.52 1.97103H4.48ZM12.2 3.20376C12.4652 3.20376 12.7196 3.31199 12.9071 3.50464C13.0946 3.69729 13.2 3.95858 13.2 4.23103C13.2 4.50348 13.0946 4.76477 12.9071 4.95742C12.7196 5.15007 12.4652 5.2583 12.2 5.2583C11.9348 5.2583 11.6804 5.15007 11.4929 4.95742C11.3054 4.76477 11.2 4.50348 11.2 4.23103C11.2 3.95858 11.3054 3.69729 11.4929 3.50464C11.6804 3.31199 11.9348 3.20376 12.2 3.20376ZM8 4.43648C9.06087 4.43648 10.0783 4.8694 10.8284 5.64001C11.5786 6.41061 12 7.45578 12 8.54557C12 9.63537 11.5786 10.6805 10.8284 11.4511C10.0783 12.2217 9.06087 12.6547 8 12.6547C6.93913 12.6547 5.92172 12.2217 5.17157 11.4511C4.42143 10.6805 4 9.63537 4 8.54557C4 7.45578 4.42143 6.41061 5.17157 5.64001C5.92172 4.8694 6.93913 4.43648 8 4.43648ZM8 6.08012C7.36348 6.08012 6.75303 6.33987 6.30294 6.80223C5.85286 7.2646 5.6 7.8917 5.6 8.54557C5.6 9.19945 5.85286 9.82655 6.30294 10.2889C6.75303 10.7513 7.36348 11.011 8 11.011C8.63652 11.011 9.24697 10.7513 9.69706 10.2889C10.1471 9.82655 10.4 9.19945 10.4 8.54557C10.4 7.8917 10.1471 7.2646 9.69706 6.80223C9.24697 6.33987 8.63652 6.08012 8 6.08012Z" fill="white"/>
</svg>
