<svg width="20" height="18" viewBox="0 0 20 18" fill="none" xmlns="http://www.w3.org/2000/svg">
<path d="M17.2727 0H2.72727C1.22114 0 0 1.34325 0 3V15C0 16.6567 1.22114 18 2.72727 18H17.2727C18.7789 18 20 16.6567 20 15V3C20 1.34325 18.7789 0 17.2727 0ZM17.2727 2C17.3777 2 17.4786 2.0195 17.5723 2.05575L10 8.7195L2.42773 2.05575C2.52136 2.0195 2.62227 2 2.72727 2H17.2727ZM17.2727 16H2.72727C2.22523 16 1.81818 15.5523 1.81818 15V4.0805L9.43205 10.7808C9.59796 10.927 9.79886 11 10 11C10.2011 11 10.402 10.927 10.568 10.7808L18.1818 4.0805V15C18.1818 15.5523 17.7748 16 17.2727 16Z" fill="#699024"/>
</svg>
