<svg width="16" height="18" viewBox="0 0 16 18" fill="none" xmlns="http://www.w3.org/2000/svg">
<path d="M5.28556 8.89483C4.67846 8.02992 4.3173 6.98635 4.24278 6.8977C5.13196 6.28749 6.871 5.52068 6.96837 4.42041C7.09226 2.99884 4.64554 0.0270004 4.17649 0C2.89279 0.0135002 0.543444 2.15193 0.265034 2.79814C-0.252471 4.13421 0.00399542 5.37758 0.893629 7.1776C2.02647 9.85514 6.23417 14.9344 8.64112 16.5287C10.2339 17.7321 11.3973 18.2046 12.7866 17.9193C13.4326 17.7987 15.7655 15.9145 15.9991 14.6405C16.0563 14.168 13.3444 11.0355 11.9418 10.9113C10.8529 10.8123 9.80871 12.417 9.06034 13.2014C8.98582 13.1078 8.34762 12.6177 7.6628 11.8419C6.77134 10.9199 5.94296 9.83669 5.28556 8.89483Z" fill="#699024"/>
</svg>
