<svg width="16" height="17" viewBox="0 0 16 17" fill="none" xmlns="http://www.w3.org/2000/svg">
<path d="M8 0.583984C3.7185 0.583984 0.25 4.14759 0.25 8.54535C0.25 12.9431 3.719 16.5067 8 16.5067C12.2815 16.5067 15.75 12.9431 15.75 8.54535C15.75 4.14759 12.281 0.583984 8 0.583984ZM11.8065 6.03829L10.5345 12.1958C10.4405 12.6324 10.1875 12.7382 9.8345 12.5327L7.897 11.0658L6.9625 11.9903C6.8595 12.0961 6.772 12.186 6.572 12.186L6.7095 10.1602L10.3 6.82775C10.4565 6.6865 10.2655 6.60637 10.059 6.74762L5.6215 9.61731L3.709 9.00402C3.2935 8.86945 3.284 8.57719 3.7965 8.37174L11.2685 5.41165C11.6155 5.28324 11.9185 5.49846 11.806 6.03778L11.8065 6.03829Z" fill="white"/>
</svg>
