<svg width="18" height="17" viewBox="0 0 18 17" fill="none" xmlns="http://www.w3.org/2000/svg">
<path d="M18 2.26108C17.3375 2.59948 16.6233 2.82185 15.8834 2.92821C16.6405 2.41578 17.2256 1.60363 17.501 0.627114C16.7868 1.11054 15.9952 1.44893 15.1606 1.6423C14.4809 0.810815 13.5258 0.327393 12.4417 0.327393C10.4197 0.327393 8.76769 2.18374 8.76769 4.47516C8.76769 4.80388 8.8021 5.12294 8.86233 5.42267C5.79924 5.24863 3.0717 3.59533 1.25621 1.0912C0.937859 1.70031 0.75717 2.41578 0.75717 3.16992C0.75717 4.61052 1.40249 5.88675 2.40057 6.61188C1.78967 6.61188 1.2218 6.41852 0.722754 6.12846V6.15747C0.722754 8.1685 1.99618 9.85081 3.6826 10.2279C3.14116 10.3944 2.57274 10.4176 2.02199 10.2956C2.25568 11.1198 2.71337 11.841 3.3307 12.3578C3.94804 12.8746 4.69398 13.161 5.46367 13.1768C4.15896 14.3374 2.54168 14.9648 0.877629 14.9558C0.585086 14.9558 0.292543 14.9364 0 14.8977C1.6348 16.0773 3.57935 16.7638 5.66157 16.7638C12.4417 16.7638 16.1673 10.4406 16.1673 4.95858C16.1673 4.77488 16.1673 4.60085 16.1587 4.41715C16.8815 3.83704 17.501 3.10224 18 2.26108Z" fill="white"/>
</svg>
