<svg width="30" height="30" viewBox="0 0 30 30" fill="none" xmlns="http://www.w3.org/2000/svg">
<path d="M15 1.95652C18.4582 1.96032 21.7736 3.33576 24.2189 5.78106C26.6642 8.22636 28.0397 11.5418 28.0435 15C28.0497 17.0987 27.5438 19.1672 26.5696 21.0261C25.6265 22.8241 24.2811 24.3801 22.6383 25.573C20.4152 27.179 17.7425 28.0435 15 28.0435C12.2575 28.0435 9.5848 27.179 7.36174 25.573C5.71815 24.3805 4.37228 22.8244 3.42914 21.0261C2.45536 19.1671 1.94987 17.0986 1.95653 15C1.96033 11.5418 3.33576 8.22636 5.78107 5.78106C8.22637 3.33576 11.5418 1.96032 15 1.95652ZM15 0C12.0333 0 9.13319 0.879735 6.66645 2.52796C4.19972 4.17618 2.27713 6.51886 1.14181 9.25975C0.00649925 12.0006 -0.290551 15.0166 0.288227 17.9264C0.867006 20.8361 2.29562 23.5088 4.3934 25.6066C6.49119 27.7044 9.16393 29.133 12.0736 29.7118C14.9834 30.2906 17.9994 29.9935 20.7403 28.8582C23.4811 27.7229 25.8238 25.8003 27.472 23.3335C29.1203 20.8668 30 17.9667 30 15C30 11.0217 28.4196 7.20644 25.6066 4.3934C22.7936 1.58035 18.9783 0 15 0Z" fill="#1A1A1A"/>
<path d="M15.9482 18.9234C17.5073 18.9255 19.0019 19.5459 20.1042 20.6484C21.2065 21.7509 21.8265 23.2457 21.8282 24.8047V26.1091C19.7735 27.3696 17.4099 28.0369 14.9993 28.0369C12.5887 28.0369 10.2251 27.3696 8.17039 26.1091V24.8047C8.17211 23.2457 8.79213 21.7509 9.89443 20.6484C10.9967 19.5459 12.4913 18.9255 14.0504 18.9234H15.9482ZM15.9482 16.9669H14.0504C13.0212 16.9669 12.002 17.1697 11.0512 17.5636C10.1003 17.9575 9.23638 18.5348 8.50867 19.2626C7.78096 19.9905 7.20376 20.8545 6.81001 21.8054C6.41627 22.7564 6.2137 23.7755 6.21387 24.8047V27.1526C8.77066 29.0001 11.8448 29.9946 14.9993 29.9946C18.1538 29.9946 21.2279 29.0001 23.7847 27.1526V24.8047C23.7849 23.7755 23.5823 22.7564 23.1886 21.8054C22.7948 20.8545 22.2176 19.9905 21.4899 19.2626C20.7622 18.5348 19.8983 17.9575 18.9474 17.5636C17.9966 17.1697 16.9774 16.9669 15.9482 16.9669Z" fill="#1A1A1A"/>
<path d="M15 9.56223C15.4856 9.56223 15.9602 9.70624 16.364 9.97603C16.7677 10.2458 17.0823 10.6293 17.2681 11.0779C17.4538 11.5265 17.5024 12.0202 17.4075 12.4964C17.3127 12.9726 17.0788 13.41 16.7353 13.7533C16.3919 14.0965 15.9544 14.3302 15.4781 14.4248C15.0018 14.5194 14.5082 14.4706 14.0597 14.2846C13.6112 14.0986 13.2279 13.7837 12.9583 13.3799C12.6887 12.976 12.545 12.5013 12.5452 12.0157C12.5459 11.365 12.8048 10.7411 13.2651 10.2811C13.7253 9.82114 14.3493 9.56258 15 9.56223ZM15 7.60571C14.1274 7.60546 13.2744 7.86399 12.5487 8.34861C11.8231 8.83323 11.2575 9.52217 10.9234 10.3283C10.5894 11.1344 10.5019 12.0215 10.6721 12.8773C10.8423 13.7331 11.2624 14.5193 11.8794 15.1363C12.4965 15.7533 13.2826 16.1735 14.1384 16.3436C14.9943 16.5138 15.8813 16.4263 16.6874 16.0923C17.4936 15.7582 18.1825 15.1926 18.6671 14.467C19.1517 13.7414 19.4103 12.8883 19.41 12.0157C19.4097 10.8462 18.9449 9.72471 18.118 8.89775C17.291 8.07079 16.1695 7.60606 15 7.60571Z" fill="#1A1A1A"/>
</svg>
